<svg width="76" height="42" viewBox="0 0 76 42" fill="none" xmlns="http://www.w3.org/2000/svg">
<path fill-rule="evenodd" clip-rule="evenodd" d="M33.5 13C34.0523 13 34.5 13.4477 34.5 14V15H41.5V14C41.5 13.4477 41.9477 13 42.5 13C43.0523 13 43.5 13.4477 43.5 14V15.0247C46.0267 15.2755 48 17.4073 48 20V29C48 31.7614 45.7614 34 43 34H33C30.2386 34 28 31.7614 28 29V20C28 17.4073 29.9733 15.2755 32.5 15.0247V14C32.5 13.4477 32.9477 13 33.5 13ZM30.1707 19H45.8293C45.4175 17.8348 44.3062 17 43 17H33C31.6938 17 30.5825 17.8348 30.1707 19ZM46 21H30V29C30 30.6569 31.3431 32 33 32H43C44.6569 32 46 30.6569 46 29V21ZM32 24C32 23.4477 32.4477 23 33 23H37C37.5523 23 38 23.4477 38 24V28C38 28.5523 37.5523 29 37 29H33C32.4477 29 32 28.5523 32 28V24ZM36 25H34V27H36V25Z" fill="black"/>
</svg>
