<svg width="76" height="44" viewBox="0 0 76 44" fill="none" xmlns="http://www.w3.org/2000/svg">
<g clip-path="url(#clip0_33_766)">
<path fill-rule="evenodd" clip-rule="evenodd" d="M28.7 19.1111C28.7 15.736 31.3863 13 34.7 13H44C47.3137 13 50 15.736 50 19.1111V28.8889C50 32.264 47.3137 35 44 35H27.2C26.759 35 26.3535 34.7536 26.1441 34.3584C25.9346 33.9632 25.9548 33.4827 26.1967 33.1072L28.1098 30.1381C28.4948 29.5405 28.7 28.8412 28.7 28.1264V19.1111ZM34.7 15.4444C32.7118 15.4444 31.1 17.0861 31.1 19.1111V28.1264C31.1 29.3178 30.7581 30.4832 30.1163 31.4793L29.4228 32.5556H44C45.9882 32.5556 47.6 30.9139 47.6 28.8889V19.1111C47.6 17.0861 45.9882 15.4444 44 15.4444H34.7Z" fill="black" stroke="black" stroke-width="0.5" stroke-linecap="round" stroke-linejoin="round"/>
<path d="M40 24C40 24.5523 39.5523 25 39 25C38.4477 25 38 24.5523 38 24C38 23.4477 38.4477 23 39 23C39.5523 23 40 23.4477 40 24Z" fill="black"/>
<path d="M44 24C44 24.5523 43.5523 25 43 25C42.4477 25 42 24.5523 42 24C42 23.4477 42.4477 23 43 23C43.5523 23 44 23.4477 44 24Z" fill="black"/>
<path d="M36 24C36 24.5523 35.5523 25 35 25C34.4477 25 34 24.5523 34 24C34 23.4477 34.4477 23 35 23C35.5523 23 36 23.4477 36 24Z" fill="black"/>
</g>
<defs>
<clipPath id="clip0_33_766">
<rect width="24" height="24" fill="white" transform="translate(26 12)"/>
</clipPath>
</defs>
</svg>
