<svg width="24" height="24" viewBox="0 0 24 24" fill="none" xmlns="http://www.w3.org/2000/svg">
<g clip-path="url(#clip0_71_248)">
<path fill-rule="evenodd" clip-rule="evenodd" d="M2.7 7.11111C2.7 3.73603 5.38629 1 8.7 1H18C21.3137 1 24 3.73604 24 7.11111V16.8889C24 20.264 21.3137 23 18 23H1.2C0.759007 23 0.353545 22.7536 0.14405 22.3584C-0.0654437 21.9632 -0.0452106 21.4827 0.196744 21.1072L2.10977 18.1381C2.49485 17.5405 2.7 16.8412 2.7 16.1264V7.11111ZM8.7 3.44444C6.71177 3.44444 5.1 5.08606 5.1 7.11111V16.1264C5.1 17.3178 4.75808 18.4832 4.11629 19.4793L3.42282 20.5556H18C19.9882 20.5556 21.6 18.9139 21.6 16.8889V7.11111C21.6 5.08607 19.9882 3.44444 18 3.44444H8.7Z" fill="black" stroke="black" stroke-width="0.5" stroke-linecap="round" stroke-linejoin="round"/>
<path d="M14 12C14 12.5523 13.5523 13 13 13C12.4477 13 12 12.5523 12 12C12 11.4477 12.4477 11 13 11C13.5523 11 14 11.4477 14 12Z" fill="black"/>
<path d="M18 12C18 12.5523 17.5523 13 17 13C16.4477 13 16 12.5523 16 12C16 11.4477 16.4477 11 17 11C17.5523 11 18 11.4477 18 12Z" fill="black"/>
<path d="M10 12C10 12.5523 9.55228 13 9 13C8.44772 13 8 12.5523 8 12C8 11.4477 8.44772 11 9 11C9.55228 11 10 11.4477 10 12Z" fill="black"/>
</g>
<defs>
<clipPath id="clip0_71_248">
<rect width="24" height="24" fill="white"/>
</clipPath>
</defs>
</svg>
