<svg width="24" height="17" viewBox="0 0 24 17" fill="none" xmlns="http://www.w3.org/2000/svg">
<path d="M23.8406 6.11658L21.4481 1.3297C21.36 1.15352 21.238 0.996416 21.0892 0.867375C20.9403 0.738333 20.7675 0.639878 20.5806 0.577633C20.3937 0.515387 20.1963 0.49057 19.9998 0.504598C19.8033 0.518626 19.6115 0.571226 19.4353 0.659392L17.1038 1.8247L12.1922 0.525329C12.0662 0.492533 11.9339 0.492533 11.8078 0.525329L6.89627 1.8247L4.56471 0.659392C4.38853 0.571226 4.19672 0.518626 4.00021 0.504598C3.80371 0.49057 3.60637 0.515387 3.41946 0.577633C3.23255 0.639878 3.05973 0.738333 2.91087 0.867375C2.76201 0.996416 2.64003 1.15352 2.55189 1.3297L0.159395 6.11564C0.0712288 6.29182 0.0186297 6.48363 0.00460137 6.68013C-0.00942693 6.87664 0.0153904 7.07398 0.0776361 7.26089C0.139882 7.4478 0.238337 7.62062 0.367378 7.76948C0.496419 7.91834 0.65352 8.04032 0.829707 8.12845L3.36096 9.39502L8.56314 13.1103C8.6398 13.1649 8.72596 13.2046 8.81721 13.2275L14.8172 14.7275C14.9429 14.759 15.0745 14.7575 15.1994 14.723C15.3243 14.6885 15.4381 14.6222 15.5297 14.5306L20.6925 9.36689L23.1694 8.12845C23.525 7.95045 23.7953 7.63854 23.921 7.26128C24.0467 6.88402 24.0175 6.47228 23.8397 6.11658H23.8406ZM18.6947 9.24502L15.4688 6.66127C15.3242 6.54553 15.142 6.48734 14.9572 6.4979C14.7723 6.50846 14.5979 6.58702 14.4675 6.71845C12.7978 8.40033 10.9369 8.18752 9.75002 7.43752L13.8038 3.50002H16.786L19.3369 8.60095L18.6947 9.24502ZM3.89346 2.00002L5.81252 2.95814L3.41533 7.74408L1.50002 6.78689L3.89346 2.00002ZM14.7685 13.1685L9.32064 11.8072L4.70814 8.51283L7.33314 3.26283L12 2.02627L12.9188 2.26908L8.70002 6.36408L8.69252 6.37252C8.53371 6.53132 8.41259 6.72376 8.3381 6.93563C8.2636 7.14751 8.23763 7.3734 8.26211 7.59665C8.28659 7.8199 8.36088 8.0348 8.47951 8.2255C8.59814 8.4162 8.75808 8.57783 8.94752 8.69845C10.875 9.92939 13.201 9.7297 15.0328 8.2297L17.625 10.3119L14.7685 13.1685ZM20.581 7.74314L18.1885 2.96189L20.1066 2.00002L22.5 6.78689L20.581 7.74314ZM12.3544 16.431C12.3139 16.5931 12.2204 16.737 12.0888 16.8399C11.9571 16.9428 11.7949 16.9988 11.6278 16.9991C11.5662 16.999 11.5048 16.9914 11.445 16.9766L7.53846 15.9997C7.44709 15.9772 7.36086 15.9374 7.28439 15.8825L4.81408 14.1181C4.66219 13.9989 4.56215 13.8256 4.5348 13.6345C4.50746 13.4433 4.5549 13.2489 4.66726 13.0919C4.77962 12.9348 4.94824 12.8271 5.138 12.7913C5.32776 12.7554 5.52403 12.7942 5.68596 12.8994L8.04002 14.5813L11.8125 15.5225C12.0054 15.5708 12.1713 15.6937 12.2736 15.8642C12.3759 16.0348 12.4063 16.2389 12.3581 16.4319L12.3544 16.431Z" fill="black"/>
</svg>
