<svg width="23" height="20" viewBox="0 0 23 20" fill="none" xmlns="http://www.w3.org/2000/svg">
<path d="M15.069 0H14.2759C13.8552 0 13.4517 0.162087 13.1542 0.450605C12.8568 0.739122 12.6897 1.13044 12.6897 1.53846V6.92308H4.67931C4.49527 6.05492 4.00825 5.27484 3.30034 4.71435C2.59243 4.15387 1.70693 3.84724 0.793103 3.84615C0.582759 3.84615 0.38103 3.9272 0.232295 4.07146C0.0835588 4.21571 0 4.41137 0 4.61538C0 4.8194 0.0835588 5.01505 0.232295 5.15931C0.38103 5.30357 0.582759 5.38461 0.793103 5.38461C1.42414 5.38461 2.02932 5.62775 2.47553 6.06052C2.92174 6.4933 3.17241 7.08027 3.17241 7.69231C3.17478 9.73173 4.01112 11.687 5.49797 13.1291C6.98481 14.5712 9.00073 15.3823 11.1034 15.3846H15.069C17.1724 15.3846 19.1897 14.5742 20.6771 13.1316C22.1644 11.689 23 9.73243 23 7.69231C23 5.65218 22.1644 3.69561 20.6771 2.25302C19.1897 0.810437 17.1724 0 15.069 0ZM21.3622 6.92308H15.7441L19.894 3.70288C20.6977 4.61386 21.2082 5.73348 21.3622 6.92308ZM15.069 1.53846C16.3712 1.53727 17.6419 1.92725 18.7063 2.65481L14.2759 6.09135V1.53846H15.069ZM15.069 13.8462H11.1034C9.55856 13.8443 8.06727 13.2967 6.90858 12.3056C5.74989 11.3145 5.0032 9.94794 4.80819 8.46154H21.3642C21.1692 9.94794 20.4225 11.3145 19.2638 12.3056C18.1051 13.2967 16.6139 13.8443 15.069 13.8462ZM9.51724 18.4615C9.51724 18.7658 9.42421 19.0633 9.24992 19.3163C9.07562 19.5693 8.82789 19.7664 8.53805 19.8829C8.24821 19.9993 7.92928 20.0298 7.62158 19.9704C7.31389 19.9111 7.03125 19.7646 6.80942 19.5494C6.58758 19.3342 6.43651 19.0601 6.37531 18.7617C6.3141 18.4632 6.34551 18.1539 6.46557 17.8728C6.58563 17.5917 6.78894 17.3514 7.04979 17.1824C7.31064 17.0133 7.61731 16.9231 7.93103 16.9231C8.35172 16.9231 8.75518 17.0852 9.05265 17.3737C9.35012 17.6622 9.51724 18.0535 9.51724 18.4615ZM19.8276 18.4615C19.8276 18.7658 19.7346 19.0633 19.5603 19.3163C19.386 19.5693 19.1382 19.7664 18.8484 19.8829C18.5586 19.9993 18.2396 20.0298 17.9319 19.9704C17.6242 19.9111 17.3416 19.7646 17.1198 19.5494C16.8979 19.3342 16.7469 19.0601 16.6857 18.7617C16.6244 18.4632 16.6559 18.1539 16.7759 17.8728C16.896 17.5917 17.0993 17.3514 17.3601 17.1824C17.621 17.0133 17.9277 16.9231 18.2414 16.9231C18.6621 16.9231 19.0655 17.0852 19.363 17.3737C19.6605 17.6622 19.8276 18.0535 19.8276 18.4615Z" fill="black"/>
</svg>
