<svg width="22" height="19" viewBox="0 0 22 19" fill="none" xmlns="http://www.w3.org/2000/svg">
<path d="M5.75 10.5H2C1.80109 10.5 1.61032 10.421 1.46967 10.2803C1.32902 10.1397 1.25 9.94891 1.25 9.75C1.25 9.55109 1.32902 9.36032 1.46967 9.21967C1.61032 9.07902 1.80109 9 2 9H5.34875L6.62562 7.08375C6.69409 6.98087 6.78691 6.89651 6.89584 6.83816C7.00477 6.7798 7.12643 6.74927 7.25 6.74927C7.37357 6.74927 7.49523 6.7798 7.60416 6.83816C7.71309 6.89651 7.80591 6.98087 7.87438 7.08375L10.25 10.6462L11.1256 9.33375C11.1942 9.23101 11.287 9.14679 11.396 9.08857C11.5049 9.03034 11.6265 8.99992 11.75 9H14C14.1989 9 14.3897 9.07902 14.5303 9.21967C14.671 9.36032 14.75 9.55109 14.75 9.75C14.75 9.94891 14.671 10.1397 14.5303 10.2803C14.3897 10.421 14.1989 10.5 14 10.5H12.1512L10.8744 12.4162C10.8059 12.5191 10.7131 12.6035 10.6042 12.6618C10.4952 12.7202 10.3736 12.7507 10.25 12.7507C10.1264 12.7507 10.0048 12.7202 9.89584 12.6618C9.78691 12.6035 9.69409 12.5191 9.62562 12.4162L7.25 8.85187L6.37438 10.1644C6.30604 10.2675 6.21328 10.3521 6.10434 10.4106C5.99541 10.4692 5.87368 10.4999 5.75 10.5ZM15.6875 0.75C13.7516 0.75 12.0566 1.5825 11 2.98969C9.94344 1.5825 8.24844 0.75 6.3125 0.75C4.77146 0.751737 3.29404 1.36468 2.20436 2.45436C1.11468 3.54404 0.501737 5.02146 0.5 6.5625C0.5 6.63281 0.5 6.70312 0.5 6.77344C0.506216 6.97235 0.591195 7.16065 0.736243 7.2969C0.88129 7.43316 1.07453 7.50622 1.27344 7.5C1.47235 7.49378 1.66065 7.4088 1.7969 7.26376C1.93316 7.11871 2.00622 6.92547 2 6.72656C2 6.67219 2 6.61687 2 6.5625C2.00149 5.41921 2.45632 4.32317 3.26475 3.51475C4.07317 2.70632 5.16921 2.25149 6.3125 2.25C8.13594 2.25 9.66687 3.22125 10.3062 4.78125C10.3628 4.91881 10.4589 5.03646 10.5824 5.11926C10.7059 5.20206 10.8513 5.24627 11 5.24627C11.1487 5.24627 11.2941 5.20206 11.4176 5.11926C11.5411 5.03646 11.6372 4.91881 11.6937 4.78125C12.3331 3.21844 13.8641 2.25 15.6875 2.25C16.8308 2.25149 17.9268 2.70632 18.7353 3.51475C19.5437 4.32317 19.9985 5.41921 20 6.5625C20 11.5884 12.71 16.1391 11 17.1375C9.98469 16.5459 7.00344 14.7 4.74875 12.2428C4.68215 12.1702 4.60189 12.1114 4.51255 12.0697C4.42322 12.0281 4.32657 12.0045 4.22811 12.0002C4.12965 11.996 4.03131 12.0111 3.93872 12.0449C3.84612 12.0786 3.76107 12.1303 3.68844 12.1969C3.6158 12.2635 3.55699 12.3437 3.51537 12.4331C3.47375 12.5224 3.45014 12.6191 3.44587 12.7175C3.44161 12.816 3.45677 12.9143 3.49051 13.0069C3.52425 13.0995 3.5759 13.1845 3.6425 13.2572C6.56469 16.4447 10.4797 18.5709 10.6447 18.66C10.7539 18.7188 10.876 18.7495 11 18.7495C11.124 18.7495 11.2461 18.7188 11.3553 18.66C11.7697 18.4369 21.5 13.125 21.5 6.5625C21.4983 5.02146 20.8853 3.54404 19.7956 2.45436C18.706 1.36468 17.2285 0.751737 15.6875 0.75Z" fill="black"/>
</svg>
