<svg width="22" height="19" viewBox="0 0 22 19" fill="none" xmlns="http://www.w3.org/2000/svg">
<path d="M21.75 1C21.75 0.801088 21.671 0.610322 21.5303 0.46967C21.3897 0.329018 21.1989 0.25 21 0.25C16.8675 0.25 12.6272 4.91031 10.2722 7.99656C9.43115 7.73898 8.5414 7.68224 7.67443 7.83089C6.80746 7.97954 5.98744 8.32944 5.28023 8.85249C4.57301 9.37553 3.99832 10.0571 3.60231 10.8426C3.2063 11.628 3.00002 12.4954 3.00002 13.375C3.00002 16.27 1.16815 17.5684 1.08096 17.6284C0.947916 17.7183 0.84721 17.8484 0.793648 17.9998C0.740087 18.1511 0.736496 18.3156 0.783404 18.4692C0.830312 18.6227 0.925243 18.7571 1.05424 18.8527C1.18323 18.9482 1.33949 18.9999 1.50002 19H8.62502C9.50464 19 10.372 18.7937 11.1574 18.3977C11.9429 18.0017 12.6245 17.427 13.1475 16.7198C13.6706 16.0126 14.0205 15.1926 14.1691 14.3256C14.3178 13.4586 14.261 12.5689 14.0035 11.7278C17.0906 9.37281 21.75 5.1325 21.75 1ZM8.62502 17.5H3.24658C3.87939 16.6009 4.50002 15.2425 4.50002 13.375C4.50002 12.5592 4.74195 11.7616 5.19521 11.0833C5.64847 10.4049 6.2927 9.87621 7.04645 9.564C7.80019 9.25179 8.6296 9.1701 9.42977 9.32926C10.2299 9.48843 10.9649 9.88129 11.5418 10.4582C12.1187 11.0351 12.5116 11.7701 12.6708 12.5703C12.8299 13.3704 12.7482 14.1998 12.436 14.9536C12.1238 15.7073 11.5951 16.3516 10.9167 16.8048C10.2384 17.2581 9.44087 17.5 8.62502 17.5ZM11.6644 8.64531C11.9856 8.22906 12.301 7.83688 12.6103 7.46875C13.3676 7.98035 14.0197 8.63244 14.5313 9.38969C14.1625 9.69844 13.7703 10.0138 13.3547 10.3356C12.9177 9.65858 12.3414 9.08236 11.6644 8.64531ZM15.6675 8.39406C15.1013 7.59512 14.404 6.89778 13.605 6.33156C16.5844 3.09438 18.8316 2.11281 20.1581 1.84C19.891 3.1675 18.9047 5.41469 15.6675 8.39406Z" fill="white"/>
</svg>
