<svg width="28" height="26" viewBox="0 0 28 26" fill="none" xmlns="http://www.w3.org/2000/svg">
<path d="M25.25 9C25.25 8.30964 24.6904 7.75 24 7.75C23.3096 7.75 22.75 8.30964 22.75 9H25.25ZM5.25 9C5.25 8.30964 4.69036 7.75 4 7.75C3.30964 7.75 2.75 8.30964 2.75 9H5.25ZM10.25 24V25.25H10.2501L10.25 24ZM5.09835 22.9017L4.21447 23.7855L4.21447 23.7855L5.09835 22.9017ZM22.9017 22.9017L23.7855 23.7855V23.7855L22.9017 22.9017ZM17.75 24L17.7499 25.25H17.75V24ZM17.4375 24H16.1875C16.1875 24.6903 16.7471 25.2499 17.4374 25.25L17.4375 24ZM10.5625 24L10.5626 25.25C11.2529 25.2499 11.8125 24.6903 11.8125 24H10.5625ZM22.75 9V16.5H25.25V9H22.75ZM5.25 16.5V9H2.75V16.5H5.25ZM10.25 22.75C9.07597 22.75 8.17122 22.7468 7.42426 22.6282C6.70304 22.5137 6.27561 22.3111 5.98223 22.0178L4.21447 23.7855C5.01944 24.5905 6.02408 24.9372 7.03222 25.0972C8.01463 25.2532 9.13653 25.25 10.25 25.25V22.75ZM2.75 16.5C2.75 18.2324 2.74735 19.6575 2.89844 20.7813C3.05437 21.9411 3.39433 22.9654 4.21447 23.7855L5.98223 22.0178C5.70402 21.7396 5.4948 21.3308 5.37615 20.4482C5.25265 19.5297 5.25 18.3031 5.25 16.5H2.75ZM22.75 16.5C22.75 18.3031 22.7473 19.5297 22.6239 20.4482C22.5052 21.3308 22.296 21.7396 22.0178 22.0178L23.7855 23.7855C24.6057 22.9654 24.9456 21.9411 25.1016 20.7813C25.2527 19.6575 25.25 18.2324 25.25 16.5H22.75ZM17.75 25.25C18.8635 25.25 19.9854 25.2532 20.9678 25.0972C21.9759 24.9372 22.9806 24.5905 23.7855 23.7855L22.0178 22.0178C21.7244 22.3111 21.297 22.5137 20.5757 22.6282C19.8288 22.7468 18.924 22.75 17.75 22.75V25.25ZM16.1875 18.0625V24H18.6875V18.0625H16.1875ZM11.8125 24V18.0625H9.3125V24H11.8125ZM14 15.875C15.2081 15.875 16.1875 16.8544 16.1875 18.0625H18.6875C18.6875 15.4736 16.5888 13.375 14 13.375V15.875ZM14 13.375C11.4112 13.375 9.3125 15.4736 9.3125 18.0625H11.8125C11.8125 16.8544 12.7919 15.875 14 15.875V13.375ZM10.5624 22.75L10.2499 22.75L10.2501 25.25L10.5626 25.25L10.5624 22.75ZM17.4374 25.25L17.7499 25.25L17.7501 22.75L17.4376 22.75L17.4374 25.25Z" fill="black"/>
<path d="M2 10L9.56503 4.37525C11.6948 2.79175 12.7596 2 14 2C15.2404 2 16.3052 2.79175 18.435 4.37526L26 10" stroke="black" stroke-width="2.5" stroke-linecap="round" stroke-linejoin="round"/>
</svg>
