<svg width="76" height="44" viewBox="0 0 76 44" fill="none" xmlns="http://www.w3.org/2000/svg">
<path d="M49.25 20C49.25 19.3096 48.6904 18.75 48 18.75C47.3096 18.75 46.75 19.3096 46.75 20H49.25ZM29.25 20C29.25 19.3096 28.6904 18.75 28 18.75C27.3096 18.75 26.75 19.3096 26.75 20H29.25ZM34.25 35V36.25H34.2501L34.25 35ZM29.0983 33.9017L28.2145 34.7855L28.2145 34.7855L29.0983 33.9017ZM46.9017 33.9017L47.7855 34.7855V34.7855L46.9017 33.9017ZM41.75 35L41.7499 36.25H41.75V35ZM41.4375 35H40.1875C40.1875 35.6903 40.7471 36.2499 41.4374 36.25L41.4375 35ZM34.5625 35L34.5626 36.25C35.2529 36.2499 35.8125 35.6903 35.8125 35H34.5625ZM46.75 20V27.5H49.25V20H46.75ZM29.25 27.5V20H26.75V27.5H29.25ZM34.25 33.75C33.076 33.75 32.1712 33.7468 31.4243 33.6282C30.703 33.5137 30.2756 33.3111 29.9822 33.0178L28.2145 34.7855C29.0194 35.5905 30.0241 35.9372 31.0322 36.0972C32.0146 36.2532 33.1365 36.25 34.25 36.25V33.75ZM26.75 27.5C26.75 29.2324 26.7473 30.6575 26.8984 31.7813C27.0544 32.9411 27.3943 33.9654 28.2145 34.7855L29.9822 33.0178C29.704 32.7396 29.4948 32.3308 29.3761 31.4482C29.2527 30.5297 29.25 29.3031 29.25 27.5H26.75ZM46.75 27.5C46.75 29.3031 46.7473 30.5297 46.6239 31.4482C46.5052 32.3308 46.296 32.7396 46.0178 33.0178L47.7855 34.7855C48.6057 33.9654 48.9456 32.9411 49.1016 31.7813C49.2527 30.6575 49.25 29.2324 49.25 27.5H46.75ZM41.75 36.25C42.8635 36.25 43.9854 36.2532 44.9678 36.0972C45.9759 35.9372 46.9806 35.5905 47.7855 34.7855L46.0178 33.0178C45.7244 33.3111 45.297 33.5137 44.5757 33.6282C43.8288 33.7468 42.924 33.75 41.75 33.75V36.25ZM40.1875 29.0625V35H42.6875V29.0625H40.1875ZM35.8125 35V29.0625H33.3125V35H35.8125ZM38 26.875C39.2081 26.875 40.1875 27.8544 40.1875 29.0625H42.6875C42.6875 26.4736 40.5888 24.375 38 24.375V26.875ZM38 24.375C35.4112 24.375 33.3125 26.4736 33.3125 29.0625H35.8125C35.8125 27.8544 36.7919 26.875 38 26.875V24.375ZM34.5624 33.75L34.2499 33.75L34.2501 36.25L34.5626 36.25L34.5624 33.75ZM41.4374 36.25L41.7499 36.25L41.7501 33.75L41.4376 33.75L41.4374 36.25Z" fill="black"/>
<path d="M26 21L33.565 15.3753C35.6948 13.7918 36.7596 13 38 13C39.2404 13 40.3052 13.7918 42.435 15.3753L50 21" stroke="black" stroke-width="2.5" stroke-linecap="round" stroke-linejoin="round"/>
</svg>
