<svg width="23" height="24" viewBox="0 0 23 24" fill="none" xmlns="http://www.w3.org/2000/svg">
<path d="M19.3205 13.8463H10.4997L10.77 13.5751L13.077 11.2605C14.0087 11.7313 15.0354 11.9823 16.0785 11.9944C17.1286 11.9972 18.1589 11.7089 19.056 11.1613C21.7839 9.50441 23.2456 5.66907 22.9661 0.901445C22.953 0.675624 22.8576 0.462506 22.6982 0.302554C22.5388 0.142602 22.3264 0.0469524 22.1013 0.0337648C17.3493 -0.245462 13.5266 1.2199 11.8752 3.95679C10.7987 5.73946 10.7711 7.89251 11.7751 9.95671L10.1202 11.6171L8.71602 10.2082C9.40604 8.67942 9.35659 7.0929 8.55616 5.7683C7.30607 3.69256 4.44018 2.58604 0.888873 2.79488C0.664184 2.80831 0.452198 2.90392 0.293037 3.06361C0.133876 3.22329 0.0385845 3.43598 0.0251964 3.66141C-0.18411 7.22328 0.919924 10.0986 2.98999 11.354C3.68254 11.7783 4.47862 12.0019 5.29006 12.0001C6.02621 11.9928 6.75233 11.828 7.41993 11.5167L8.81837 12.9232L7.89834 13.8463H2.75998C2.51597 13.8463 2.28196 13.9435 2.10942 14.1166C1.93688 14.2897 1.83995 14.5245 1.83995 14.7693C1.83995 15.0141 1.93688 15.2489 2.10942 15.422C2.28196 15.5951 2.51597 15.6924 2.75998 15.6924H3.86287L5.38206 22.5542C5.47112 22.9652 5.69812 23.333 6.02511 23.5962C6.35209 23.8594 6.75923 24.0019 7.17842 24H14.9032C15.3224 24.0019 15.7295 23.8594 16.0565 23.5962C16.3835 23.333 16.6105 22.9652 16.6996 22.5542L18.2188 15.6924H19.3205C19.5645 15.6924 19.7985 15.5951 19.9711 15.422C20.1436 15.2489 20.2405 15.0141 20.2405 14.7693C20.2405 14.5245 20.1436 14.2897 19.9711 14.1166C19.7985 13.9435 19.5645 13.8463 19.3205 13.8463ZM13.4553 4.91331C14.6583 2.9218 17.508 1.79797 21.1606 1.84759C21.2077 5.51792 20.0899 8.37596 18.1049 9.57825C16.7812 10.3859 15.1838 10.3329 13.5876 9.4421C12.6986 7.84635 12.6503 6.24137 13.4553 4.91331ZM6.91276 9.70517C5.85473 10.274 4.80705 10.3006 3.94222 9.7744C2.61968 8.97018 1.8572 7.07444 1.83995 4.61563C4.29068 4.63293 6.18134 5.39792 6.98176 6.72483C7.50618 7.59251 7.47513 8.64365 6.91276 9.70517ZM14.9032 22.1539H7.17842L5.75007 15.6924H16.3304L14.9032 22.1539Z" fill="black"/>
</svg>
