<svg width="22" height="19" viewBox="0 0 22 19" fill="none" xmlns="http://www.w3.org/2000/svg">
<path d="M21.4728 9.71872L19.9334 1.46872C19.8958 1.26762 19.8175 1.07635 19.7032 0.906651C19.5889 0.736957 19.4411 0.592432 19.2689 0.481966C19.0967 0.371499 18.9038 0.297426 18.7019 0.2643C18.5 0.231174 18.2935 0.239697 18.095 0.289344L18.0659 0.297782L13.1422 1.74997H8.85781L3.93406 0.302469L3.905 0.294032C3.70653 0.244385 3.5 0.235862 3.29812 0.268987C3.09623 0.302113 2.90326 0.376187 2.73106 0.486653C2.55886 0.59712 2.41108 0.741644 2.29681 0.911338C2.18253 1.08103 2.10418 1.27231 2.06656 1.47341L0.527188 9.71872C0.46136 10.0489 0.510223 10.3917 0.665696 10.6904C0.821169 10.9891 1.07394 11.2257 1.38219 11.3612C1.5796 11.4518 1.79407 11.4991 2.01125 11.5C2.27119 11.4998 2.52633 11.4299 2.75 11.2975V15.25C2.75 16.2445 3.14509 17.1984 3.84835 17.9016C4.55161 18.6049 5.50544 19 6.5 19H15.5C16.4946 19 17.4484 18.6049 18.1517 17.9016C18.8549 17.1984 19.25 16.2445 19.25 15.25V11.2984C19.4734 11.4306 19.7282 11.5005 19.9878 11.5009C20.2052 11.5003 20.42 11.4533 20.6178 11.3631C20.9264 11.2275 21.1795 10.9906 21.335 10.6915C21.4905 10.3924 21.5391 10.0492 21.4728 9.71872ZM2 9.99997L3.54031 1.74997L7.48438 2.90966L2 9.99997ZM15.5 17.5H11.75V16.3103L13.0306 15.0306C13.1714 14.8899 13.2504 14.699 13.2504 14.5C13.2504 14.3009 13.1714 14.1101 13.0306 13.9693C12.8899 13.8286 12.699 13.7496 12.5 13.7496C12.301 13.7496 12.1101 13.8286 11.9694 13.9693L11 14.9397L10.0306 13.9693C9.8899 13.8286 9.69902 13.7496 9.5 13.7496C9.30098 13.7496 9.11011 13.8286 8.96938 13.9693C8.82864 14.1101 8.74958 14.3009 8.74958 14.5C8.74958 14.699 8.82864 14.8899 8.96938 15.0306L10.25 16.3103V17.5H6.5C5.90326 17.5 5.33097 17.2629 4.90901 16.841C4.48705 16.419 4.25 15.8467 4.25 15.25V9.54153L9.1175 3.24997H12.8816L17.75 9.54153V15.25C17.75 15.8467 17.5129 16.419 17.091 16.841C16.669 17.2629 16.0967 17.5 15.5 17.5ZM20 9.99997L14.5156 2.90966L18.4597 1.74997L20 9.99997ZM8.75 11.125C8.75 11.3475 8.68402 11.565 8.5604 11.75C8.43679 11.935 8.26109 12.0792 8.05552 12.1643C7.84995 12.2495 7.62375 12.2718 7.40552 12.2284C7.18729 12.1849 6.98684 12.0778 6.82951 11.9205C6.67217 11.7631 6.56503 11.5627 6.52162 11.3444C6.47821 11.1262 6.50049 10.9 6.58564 10.6945C6.67078 10.4889 6.81498 10.3132 6.99998 10.1896C7.18499 10.0659 7.4025 9.99997 7.625 9.99997C7.92337 9.99997 8.20952 10.1185 8.4205 10.3295C8.63147 10.5405 8.75 10.8266 8.75 11.125ZM15.5 11.125C15.5 11.3475 15.434 11.565 15.3104 11.75C15.1868 11.935 15.0111 12.0792 14.8055 12.1643C14.6 12.2495 14.3738 12.2718 14.1555 12.2284C13.9373 12.1849 13.7368 12.0778 13.5795 11.9205C13.4222 11.7631 13.315 11.5627 13.2716 11.3444C13.2282 11.1262 13.2505 10.9 13.3356 10.6945C13.4208 10.4889 13.565 10.3132 13.75 10.1896C13.935 10.0659 14.1525 9.99997 14.375 9.99997C14.6734 9.99997 14.9595 10.1185 15.1705 10.3295C15.3815 10.5405 15.5 10.8266 15.5 11.125Z" fill="black"/>
</svg>
