<svg width="76" height="42" viewBox="0 0 76 42" fill="none" xmlns="http://www.w3.org/2000/svg">
<path d="M37.9975 14C40.7648 14 43.0017 16.24 43.0017 19C43.0017 21.76 40.7648 24 37.9975 24C35.2352 24 32.9933 21.76 32.9933 19C32.9933 16.24 35.2352 14 37.9975 14ZM37.9975 16C36.3411 16 34.995 17.345 34.995 19C34.995 20.655 36.3411 22 37.9975 22C39.6589 22 41 20.655 41 19C41 17.345 39.6589 16 37.9975 16ZM37.9975 25.5C43.1468 25.5 46.3345 28.995 46.4997 34C46.5097 34.275 46.2845 34.5 46.0043 34.5H45.0034C44.7282 34.5 44.508 34.275 44.498 34C44.3479 30.08 42.0459 27.5 37.9975 27.5C33.9541 27.5 31.6521 30.08 31.502 34C31.492 34.275 31.2718 34.5 30.9916 34.5H29.9907C29.7155 34.5 29.4903 34.275 29.5003 34C29.6655 28.995 32.8532 25.5 37.9975 25.5Z" fill="black"/>
</svg>
