<svg width="23" height="18" viewBox="0 0 23 18" fill="none" xmlns="http://www.w3.org/2000/svg">
<path d="M13.5912 15.6825C12.3589 15.0546 11.3241 14.0981 10.6014 12.9187C9.87876 11.7394 9.49627 10.3832 9.49627 9.00004C9.49627 7.61689 9.87876 6.26069 10.6014 5.08135C11.3241 3.90202 12.3589 2.9455 13.5912 2.31754C13.7143 2.2547 13.8177 2.15905 13.8898 2.04118C13.962 1.92331 14.0002 1.78779 14.0002 1.64958C14.0002 1.51137 13.962 1.37584 13.8898 1.25797C13.8177 1.1401 13.7143 1.04446 13.5912 0.981607C12.3256 0.332131 10.9226 -0.00446179 9.5 4.4661e-05C7.11305 4.46966e-05 4.82387 0.948256 3.13604 2.63608C1.44821 4.32391 0.5 6.6131 0.5 9.00004C0.5 11.387 1.44821 13.6762 3.13604 15.364C4.82387 17.0518 7.11305 18 9.5 18C10.9226 18.0045 12.3256 17.668 13.5912 17.0185C13.7143 16.9556 13.8177 16.86 13.8898 16.7421C13.962 16.6242 14.0002 16.4887 14.0002 16.3505C14.0002 16.2123 13.962 16.0768 13.8898 15.9589C13.8177 15.841 13.7143 15.7454 13.5912 15.6825ZM9.5 16.5C8.42657 16.4982 7.36605 16.2659 6.3901 15.819C5.41415 15.372 4.54551 14.7208 3.84289 13.9093C3.14026 13.0978 2.62002 12.1449 2.31732 11.115C2.01462 10.0851 1.93651 9.0023 2.08828 7.93966C2.24005 6.87702 2.61815 5.85933 3.19704 4.95538C3.77593 4.05142 4.54212 3.28226 5.44382 2.69987C6.34553 2.11749 7.36174 1.73544 8.42379 1.57956C9.48584 1.42368 10.569 1.49759 11.6 1.79629C10.4822 2.6354 9.57493 3.72314 8.95011 4.97344C8.32528 6.22375 8 7.60231 8 9.00004C8 10.3978 8.32528 11.7763 8.95011 13.0266C9.57493 14.2769 10.4822 15.3647 11.6 16.2038C10.9176 16.4017 10.2105 16.5015 9.5 16.5ZM22.5472 8.31098L20.0628 7.23942L19.8463 4.44192C19.8345 4.29304 19.7786 4.15106 19.6857 4.03415C19.5927 3.91725 19.467 3.83075 19.3246 3.78573C19.1822 3.74072 19.0297 3.73924 18.8864 3.78149C18.7432 3.82373 18.6158 3.90778 18.5206 4.02286L16.7778 6.13317L14.18 5.49098C14.0368 5.45573 13.8863 5.46349 13.7475 5.51331C13.6086 5.56312 13.4876 5.65277 13.3994 5.77104C13.3113 5.88931 13.2599 6.03095 13.2519 6.17823C13.2438 6.32552 13.2794 6.47192 13.3541 6.59911L14.7669 9.00004L13.3541 11.401C13.2794 11.5282 13.2438 11.6746 13.2519 11.8219C13.2599 11.9691 13.3113 12.1108 13.3994 12.229C13.4876 12.3473 13.6086 12.437 13.7475 12.4868C13.8863 12.5366 14.0368 12.5444 14.18 12.5091L16.7778 11.8669L18.5206 13.9772C18.6158 14.0923 18.7432 14.1764 18.8864 14.2186C19.0297 14.2608 19.1822 14.2594 19.3246 14.2144C19.467 14.1693 19.5927 14.0828 19.6857 13.9659C19.7786 13.849 19.8345 13.707 19.8463 13.5582L20.0628 10.7607L22.5472 9.68911C22.6819 9.6312 22.7967 9.53507 22.8774 9.4126C22.9581 9.29013 23.0011 9.14669 23.0011 9.00004C23.0011 8.85339 22.9581 8.70996 22.8774 8.58749C22.7967 8.46502 22.6819 8.36888 22.5472 8.31098ZM19.0522 9.56254C18.9268 9.61677 18.8187 9.7042 18.7394 9.81539C18.6601 9.92658 18.6126 10.0573 18.6022 10.1935L18.4944 11.5894L17.6337 10.5479C17.5634 10.4626 17.4751 10.3939 17.3751 10.3467C17.2751 10.2995 17.1659 10.2751 17.0553 10.275C16.9947 10.2753 16.9343 10.2825 16.8753 10.2966L15.5516 10.6247L16.2838 9.38067C16.3517 9.26533 16.3875 9.1339 16.3875 9.00004C16.3875 8.86618 16.3517 8.73476 16.2838 8.61942L15.5516 7.37536L16.8753 7.70348C17.0126 7.73733 17.1566 7.73171 17.2908 7.68726C17.425 7.6428 17.5439 7.56133 17.6337 7.45223L18.4944 6.41067L18.6022 7.80661C18.6126 7.94278 18.6601 8.07351 18.7394 8.1847C18.8187 8.29589 18.9268 8.38332 19.0522 8.43754L20.3572 9.00004L19.0522 9.56254Z" fill="black"/>
</svg>
