<svg width="24" height="24" viewBox="0 0 24 24" fill="none" xmlns="http://www.w3.org/2000/svg">
<path d="M19.3583 9.8659L22.8548 6.57581L22.8752 6.55541C23.5954 5.83526 24 4.85852 24 3.84007C24 2.82162 23.5954 1.84488 22.8752 1.12473C22.1551 0.404578 21.1783 0 20.1598 0C19.1413 0 18.1646 0.404578 17.4444 1.12473C17.4444 1.13193 17.4312 1.13793 17.424 1.14513L14.1338 4.64159L4.17452 1.01794C4.00287 0.955511 3.81697 0.943348 3.63864 0.98288C3.46032 1.02241 3.29698 1.112 3.16779 1.24112L0.287989 4.12085C0.187638 4.22127 0.110814 4.34271 0.0630523 4.4764C0.0152901 4.6101 -0.0022209 4.75272 0.011781 4.894C0.0257829 5.03528 0.070949 5.17169 0.144025 5.29341C0.217101 5.41513 0.316268 5.51913 0.434379 5.5979L8.10065 10.7082L6.32237 12.4804H3.83975C3.58549 12.4806 3.34167 12.5815 3.16179 12.7612L0.28199 15.6409C0.169679 15.753 0.0868854 15.8911 0.0410118 16.043C-0.00486181 16.1948 -0.0123851 16.3557 0.0191146 16.5111C0.0506143 16.6666 0.120155 16.8119 0.221518 16.9339C0.322881 17.0559 0.452907 17.1509 0.599968 17.2104L5.01806 18.9778L6.78194 23.3874L6.78914 23.4066C6.85016 23.5543 6.9471 23.6844 7.07115 23.7852C7.1952 23.8859 7.34245 23.9541 7.49953 23.9836C7.65661 24.013 7.81856 24.0028 7.97067 23.9538C8.12279 23.9048 8.26027 23.8186 8.37064 23.703L11.2348 20.8376C11.3245 20.7489 11.3957 20.6433 11.4445 20.527C11.4933 20.4107 11.5187 20.2859 11.5192 20.1597V17.6772L13.2903 15.9061L18.4007 23.5722C18.4795 23.6903 18.5835 23.7895 18.7052 23.8625C18.827 23.9356 18.9634 23.9808 19.1047 23.9948C19.2459 24.0088 19.3886 23.9913 19.5223 23.9435C19.656 23.8957 19.7774 23.8189 19.8778 23.7186L22.7576 20.8389C22.8868 20.7097 22.9764 20.5463 23.0159 20.368C23.0554 20.1897 23.0433 20.0038 22.9808 19.8321L19.3583 9.8659ZM19.3499 21.5324L14.2394 13.8675C14.1611 13.7485 14.0572 13.6484 13.9354 13.5745C13.8136 13.5007 13.6768 13.4548 13.5351 13.4404C13.5027 13.4404 13.4715 13.4404 13.4403 13.4404C13.3141 13.4404 13.1892 13.4653 13.0726 13.5137C12.9561 13.5621 12.8502 13.633 12.7611 13.7223L9.88133 16.6021C9.70121 16.7817 9.59979 17.0256 9.59935 17.28V19.7626L8.03106 21.3308L6.65115 17.8799C6.60287 17.7601 6.53091 17.6513 6.43957 17.56C6.34823 17.4686 6.2394 17.3967 6.11959 17.3484L2.67103 15.9685L4.23812 14.4003H6.71955C6.84564 14.4004 6.97053 14.3756 7.08706 14.3274C7.20359 14.2793 7.30949 14.2086 7.3987 14.1195L10.2785 11.2398C10.3791 11.1393 10.4561 11.0178 10.504 10.884C10.5519 10.7502 10.5694 10.6074 10.5554 10.466C10.5414 10.3245 10.4962 10.188 10.423 10.0661C10.3498 9.94431 10.2504 9.84027 10.1321 9.76151L2.46704 4.64999L4.08693 3.03135L14.0726 6.6622C14.2486 6.72685 14.4396 6.73857 14.6221 6.69593C14.8046 6.65328 14.9707 6.55814 15.0998 6.42223L18.8123 2.4734C19.1742 2.12213 19.6597 1.92735 20.164 1.93114C20.6683 1.93494 21.1509 2.13701 21.5074 2.49369C21.864 2.85037 22.0658 3.33301 22.0694 3.8373C22.073 4.3416 21.878 4.82705 21.5265 5.18874L17.5824 8.89999C17.4465 9.02907 17.3513 9.19511 17.3087 9.37763C17.266 9.56015 17.2778 9.75116 17.3424 9.92709L20.9734 19.9125L19.3499 21.5324Z" fill="black"/>
</svg>
