<svg width="22" height="19" viewBox="0 0 22 19" fill="none" xmlns="http://www.w3.org/2000/svg">
<path d="M14.3749 4.74995C13.7332 4.74956 13.0943 4.83565 12.4756 5.00589C12.2313 4.60736 11.9346 4.24347 11.5934 3.92401L12.4849 2.65182C12.5415 2.57112 12.5815 2.48008 12.6028 2.3839C12.6242 2.28771 12.6263 2.18827 12.6092 2.09125C12.5921 1.99423 12.5561 1.90152 12.5031 1.81843C12.4502 1.73534 12.3814 1.66349 12.3007 1.60698C12.22 1.55047 12.129 1.51041 12.0328 1.48909C11.9366 1.46776 11.8372 1.46559 11.7402 1.4827C11.6431 1.4998 11.5504 1.53585 11.4673 1.58878C11.3842 1.64172 11.3124 1.7105 11.2559 1.7912L10.3643 3.06245C9.63116 2.69227 8.82126 2.49959 7.99995 2.49995C7.94557 2.49995 7.8912 2.49995 7.83682 2.49995L7.56588 0.972761C7.55166 0.873251 7.51759 0.777615 7.46567 0.691536C7.41376 0.605457 7.34508 0.530691 7.2637 0.471683C7.18232 0.412674 7.08991 0.370626 6.99196 0.348038C6.89401 0.32545 6.79252 0.322783 6.69352 0.340194C6.59451 0.357606 6.50002 0.394742 6.41566 0.449394C6.33129 0.504047 6.25877 0.575101 6.20241 0.658334C6.14605 0.741568 6.10699 0.835282 6.08757 0.933908C6.06814 1.03253 6.06874 1.13406 6.08932 1.23245L6.35932 2.76432C5.52753 3.03944 4.77764 3.51799 4.17776 4.15651L2.90088 3.26307C2.82025 3.20518 2.72892 3.16386 2.63219 3.14153C2.53547 3.11919 2.43527 3.11628 2.33741 3.13297C2.23955 3.14965 2.14598 3.18559 2.06212 3.23871C1.97826 3.29184 1.90578 3.36108 1.84888 3.44242C1.79198 3.52377 1.75179 3.6156 1.73066 3.71259C1.70952 3.80959 1.70784 3.90981 1.72573 4.00746C1.74362 4.1051 1.78072 4.19823 1.83487 4.28142C1.88902 4.36462 1.95915 4.43625 2.0412 4.49214L3.31245 5.38464C2.94095 6.11765 2.7482 6.92817 2.74995 7.74995C2.74995 7.80339 2.74995 7.85776 2.74995 7.9112L1.22276 8.1812C1.03791 8.21358 0.871915 8.31409 0.757546 8.46287C0.643177 8.61166 0.588743 8.79792 0.60499 8.98488C0.621238 9.17184 0.706985 9.34592 0.845306 9.47275C0.983627 9.59957 1.16447 9.66994 1.35213 9.66995C1.39581 9.66989 1.4394 9.66613 1.48245 9.6587L3.01245 9.3887C3.14688 9.79799 3.3314 10.1891 3.56182 10.5531C2.84444 11.2194 2.34432 12.0863 2.1266 13.0409C1.90888 13.9955 1.98365 14.9935 2.34117 15.905C2.69869 16.8165 3.32239 17.5993 4.13104 18.1513C4.9397 18.7033 5.89584 18.999 6.87495 18.9999H14.3749C16.2646 18.9999 18.0769 18.2493 19.4131 16.9131C20.7493 15.5769 21.4999 13.7646 21.4999 11.8749C21.4999 9.98528 20.7493 8.17301 19.4131 6.83681C18.0769 5.50062 16.2646 4.74995 14.3749 4.74995ZM4.24995 7.74995C4.25039 6.95575 4.50298 6.1822 4.9713 5.54078C5.43962 4.89935 6.09949 4.42317 6.85582 4.18087C7.61215 3.93856 8.42589 3.94263 9.17975 4.19249C9.93362 4.44236 10.5887 4.92512 11.0506 5.5712C9.52065 6.37633 8.3343 7.70856 7.7112 9.3212C6.72527 9.15101 5.71086 9.28747 4.80495 9.71214C4.44225 9.1219 4.25015 8.44272 4.24995 7.74995ZM14.3749 17.4999H6.87495C6.41334 17.4991 5.95682 17.4036 5.53361 17.2193C5.1104 17.035 4.72949 16.7658 4.41444 16.4284C4.0994 16.091 3.8569 15.6926 3.70196 15.2578C3.54702 14.823 3.48292 14.361 3.51363 13.9004C3.54434 13.4398 3.66921 12.9905 3.8805 12.5801C4.0918 12.1697 4.38504 11.807 4.74209 11.5144C5.09914 11.2218 5.51241 11.0056 5.95634 10.8791C6.40028 10.7526 6.86544 10.7186 7.32307 10.779C7.28838 11.0012 7.26401 11.2281 7.25088 11.4568C7.23945 11.6557 7.3075 11.851 7.44006 11.9998C7.57263 12.1485 7.75885 12.2385 7.95776 12.2499C8.15667 12.2614 8.35198 12.1933 8.50072 12.0608C8.64946 11.9282 8.73945 11.742 8.75088 11.5431C8.77193 11.169 8.83098 10.798 8.92713 10.4359C8.92713 10.4209 8.93557 10.4059 8.93838 10.3909C9.21405 9.37787 9.76744 8.46209 10.5361 7.74697C11.3047 7.03184 12.258 6.54586 13.2882 6.34388C14.3185 6.14191 15.3846 6.23199 16.3664 6.60396C17.3482 6.97593 18.2064 7.61496 18.8441 8.44891C19.4819 9.28286 19.8738 10.2785 19.9755 11.3234C20.0773 12.3683 19.885 13.4209 19.4201 14.3622C18.9553 15.3036 18.2366 16.0962 17.3451 16.6507C16.4536 17.2051 15.4248 17.4993 14.3749 17.4999Z" fill="black"/>
</svg>
