<svg width="58" height="58" viewBox="0 0 58 58" fill="none" xmlns="http://www.w3.org/2000/svg">
<circle cx="29" cy="29" r="29" fill="#FFD8CE"/>
<path d="M15 43.5C15 43.5 21.4998 36.5 28.9999 36.5C36.5 36.5 42.5 43.5 42.5 43.5" stroke="#A25A49" stroke-width="1.5"/>
<path d="M18.4589 21.7762L18.6957 21.1448C19.1509 19.931 20.458 19.2661 21.7071 19.6131C22.5689 19.8525 23.2373 20.5339 23.46 21.4001L23.6289 22.0569C23.8556 22.9383 23.5544 23.8713 22.8554 24.4539C22.4319 24.8067 21.8981 25 21.3469 25H20.693C19.942 25 19.2348 24.6464 18.7842 24.0456C18.2956 23.3942 18.173 22.5386 18.4589 21.7762Z" stroke="#A25A49" stroke-width="1.5"/>
<path d="M34.4589 21.7762L34.6957 21.1448C35.1509 19.931 36.458 19.2661 37.7071 19.6131C38.5689 19.8525 39.2373 20.5339 39.46 21.4001L39.6289 22.0569C39.8556 22.9383 39.5544 23.8713 38.8554 24.4539C38.4319 24.8067 37.8981 25 37.3469 25H36.693C35.942 25 35.2348 24.6464 34.7842 24.0456C34.2956 23.3942 34.173 22.5386 34.4589 21.7762Z" stroke="#A25A49" stroke-width="1.5"/>
</svg>
