<?xml version="1.0" encoding="UTF-8"?>
<svg id="Layer_2" data-name="Layer 2" xmlns="http://www.w3.org/2000/svg" viewBox="0 0 453.52 150.32">
  <g id="Layer_4" data-name="Layer 4">
    <polygon class="cls-1" points="440.73 150.32 384.48 24.24 335.47 134.08 424.99 134.08 424.99 148.08 324.68 148.08 318.29 138.22 378.08 4.2 390.87 4.2 453.52 144.62 440.73 150.32"/>
    <rect class="cls-1" x="291.51" width="14" height="148.02"/>
    <polygon class="cls-1" points="133.59 148.02 119.59 148.02 119.59 39.87 73.19 143.87 60.4 143.87 14 39.87 14 148.02 0 148.02 0 7 13.39 4.15 66.79 123.84 120.19 4.15 133.59 7 133.59 148.02"/>
    <polygon class="cls-1" points="268.8 150.27 212.55 24.18 163.54 134.02 253.06 134.02 253.06 148.02 152.76 148.02 146.36 138.17 206.16 4.15 218.94 4.15 281.59 144.56 268.8 150.27"/>
  </g>
</svg>