<svg width="60" height="58" viewBox="0 0 60 58" fill="none" xmlns="http://www.w3.org/2000/svg">
<ellipse cx="30" cy="29" rx="30" ry="29" fill="#C8EBC8"/>
<path d="M14.5 36.5H45" stroke="#497A49" stroke-width="1.5"/>
<path d="M19.4589 21.7762L19.6957 21.1448C20.1509 19.931 21.458 19.2661 22.7071 19.6131C23.5689 19.8525 24.2373 20.5339 24.46 21.4001L24.6289 22.0569C24.8556 22.9383 24.5544 23.8713 23.8554 24.4539C23.4319 24.8067 22.8981 25 22.3469 25H21.693C20.942 25 20.2348 24.6464 19.7842 24.0456C19.2956 23.3942 19.173 22.5386 19.4589 21.7762Z" stroke="#497A49" stroke-width="1.5"/>
<path d="M35.4589 21.7762L35.6957 21.1448C36.1509 19.931 37.458 19.2661 38.7071 19.6131C39.5689 19.8525 40.2373 20.5339 40.46 21.4001L40.6289 22.0569C40.8556 22.9383 40.5544 23.8713 39.8554 24.4539C39.4319 24.8067 38.8981 25 38.3469 25H37.693C36.942 25 36.2348 24.6464 35.7842 24.0456C35.2956 23.3942 35.173 22.5386 35.4589 21.7762Z" stroke="#497A49" stroke-width="1.5"/>
</svg>
