<svg width="58" height="58" viewBox="0 0 58 58" fill="none" xmlns="http://www.w3.org/2000/svg">
<circle cx="29" cy="29" r="29" fill="#FFEEB8"/>
<path d="M42.4998 37C42.4998 37 42.2846 50 28.4998 50C15.5008 50 14.9998 37 14.9998 37" stroke="#8B6C05" stroke-width="1.5"/>
<path d="M18.4589 24.7762L18.6957 24.1448C19.1509 22.931 20.4581 22.2661 21.7071 22.6131C22.5689 22.8525 23.2373 23.5339 23.4601 24.4001L23.629 25.0569C23.8556 25.9383 23.5545 26.8713 22.8554 27.4539C22.4319 27.8067 21.8982 28 21.347 28H20.693C19.942 28 19.2348 27.6464 18.7842 27.0456C18.2957 26.3942 18.173 25.5386 18.4589 24.7762Z" stroke="#8B6C05" stroke-width="1.5"/>
<path d="M34.4589 24.7762L34.6957 24.1448C35.1509 22.931 36.4581 22.2661 37.7071 22.6131C38.5689 22.8525 39.2373 23.5339 39.4601 24.4001L39.629 25.0569C39.8556 25.9383 39.5545 26.8713 38.8554 27.4539C38.4319 27.8067 37.8982 28 37.347 28H36.693C35.942 28 35.2348 27.6464 34.7842 27.0456C34.2957 26.3942 34.173 25.5386 34.4589 24.7762Z" stroke="#8B6C05" stroke-width="1.5"/>
</svg>
